G04 #@! TF.FileFunction,Soldermask,Top*
%FSLAX46Y46*%
G04 Gerber Fmt 4.6, Leading zero omitted, Abs format (unit mm)*
G04 Created by KiCad (PCBNEW 4.0.2-stable) date 18.04.2016 19:48:57*
%MOMM*%
G01*
G04 APERTURE LIST*
%ADD10C,0.100000*%
%ADD11C,0.320000*%
%ADD12R,1.089000X1.216000*%
%ADD13R,1.800000X1.800000*%
%ADD14C,1.800000*%
%ADD15R,1.216000X1.089000*%
%ADD16R,0.800000X0.800000*%
%ADD17R,2.000860X2.198980*%
%ADD18R,0.470000X1.400000*%
%ADD19O,0.470000X1.400000*%
%ADD20O,1.400000X0.470000*%
%ADD21R,1.400000X0.570000*%
%ADD22O,1.400000X0.570000*%
%ADD23R,1.000000X1.000000*%
%ADD24R,0.901040X1.099160*%
%ADD25O,0.901040X1.099160*%
%ADD26R,1.398880X0.499720*%
%ADD27O,1.398880X0.499720*%
%ADD28O,0.499720X1.398880*%
%ADD29R,0.480000X1.300000*%
%ADD30O,0.480000X1.300000*%
%ADD31O,1.300000X0.480000*%
%ADD32R,1.300000X1.300000*%
%ADD33R,1.400000X0.470000*%
%ADD34C,6.200000*%
%ADD35R,1.114400X1.114400*%
%ADD36R,1.200000X1.100000*%
%ADD37R,1.100000X1.200000*%
%ADD38C,1.400000*%
%ADD39C,1.200000*%
%ADD40R,1.700000X1.700000*%
%ADD41C,1.700000*%
%ADD42R,2.700000X1.700000*%
%ADD43R,1.700000X2.700000*%
%ADD44R,1.450000X0.600000*%
%ADD45R,0.700380X1.701140*%
%ADD46R,1.701140X1.701140*%
%ADD47R,1.200000X1.600000*%
%ADD48R,1.398880X2.099920*%
%ADD49R,3.200000X3.200000*%
%ADD50C,3.200000*%
G04 APERTURE END LIST*
D10*
D11*
X135950000Y-88400000D03*
X136450000Y-88400000D03*
X135950000Y-87200000D03*
X136450000Y-87200000D03*
D12*
X156838000Y-83000000D03*
X158362000Y-83000000D03*
X169438000Y-106600000D03*
X170962000Y-106600000D03*
X156838000Y-87200000D03*
X158362000Y-87200000D03*
X164962000Y-106600000D03*
X163438000Y-106600000D03*
D13*
X164400000Y-120450000D03*
D14*
X164400000Y-123950000D03*
D12*
X144462000Y-96000000D03*
X142938000Y-96000000D03*
X142938000Y-89600000D03*
X144462000Y-89600000D03*
D15*
X136700000Y-96438000D03*
X136700000Y-97962000D03*
D12*
X131762000Y-90000000D03*
X130238000Y-90000000D03*
X134638000Y-107200000D03*
X136162000Y-107200000D03*
X134638000Y-105600000D03*
X136162000Y-105600000D03*
X159437900Y-93993200D03*
X160961900Y-93993200D03*
D15*
X134400000Y-87400000D03*
X134400000Y-85876000D03*
X139800000Y-87962000D03*
X139800000Y-86438000D03*
X140300000Y-91338000D03*
X140300000Y-92862000D03*
X135100000Y-96438000D03*
X135100000Y-97962000D03*
D12*
X131762000Y-93000000D03*
X130238000Y-93000000D03*
D16*
X136000000Y-86000000D03*
X137000000Y-86000000D03*
X136000000Y-82600000D03*
X137000000Y-82600000D03*
D12*
X159437900Y-92385100D03*
X160961900Y-92385100D03*
X159438000Y-95600000D03*
X160962000Y-95600000D03*
X159438000Y-97200000D03*
X160962000Y-97200000D03*
D15*
X146400000Y-95038000D03*
X146400000Y-96562000D03*
X146400000Y-92362000D03*
X146400000Y-90838000D03*
D12*
X153038000Y-87800000D03*
X154562000Y-87800000D03*
D15*
X161600000Y-87362000D03*
X161600000Y-85838000D03*
X161600000Y-82838000D03*
X161600000Y-84362000D03*
X168400000Y-91562000D03*
X168400000Y-90038000D03*
D12*
X160646500Y-90098700D03*
X159122500Y-90098700D03*
X158196600Y-113185100D03*
X156672600Y-113185100D03*
X156603000Y-105190700D03*
X158127000Y-105190700D03*
D15*
X149200000Y-122438000D03*
X149200000Y-123962000D03*
X140400000Y-101562000D03*
X140400000Y-100038000D03*
D12*
X136562000Y-113800000D03*
X135038000Y-113800000D03*
X149838000Y-117200000D03*
X151362000Y-117200000D03*
D15*
X148446200Y-100899700D03*
X148446200Y-99375700D03*
X152378700Y-105990100D03*
X152378700Y-104466100D03*
X153978700Y-105990100D03*
X153978700Y-104466100D03*
D12*
X151859000Y-114562100D03*
X153383000Y-114562100D03*
X164362000Y-113600000D03*
X162838000Y-113600000D03*
D15*
X161600000Y-116962000D03*
X161600000Y-115438000D03*
D12*
X149988000Y-83750000D03*
X151512000Y-83750000D03*
D17*
X161000000Y-110305000D03*
X161000000Y-106495000D03*
D18*
X155750000Y-90350000D03*
D19*
X155250000Y-90350000D03*
X154750000Y-90350000D03*
X154250000Y-90350000D03*
X153750000Y-90350000D03*
X153250000Y-90350000D03*
X152750000Y-90350000D03*
X152250000Y-90350000D03*
X151750000Y-90350000D03*
X151250000Y-90350000D03*
X150750000Y-90350000D03*
X150250000Y-90350000D03*
D20*
X148750000Y-91850000D03*
X148750000Y-92350000D03*
X148750000Y-92850000D03*
X148750000Y-93350000D03*
X148750000Y-93850000D03*
X148750000Y-94350000D03*
X148750000Y-94850000D03*
X148750000Y-95350000D03*
X148750000Y-95850000D03*
X148750000Y-96350000D03*
X148750000Y-96850000D03*
X148750000Y-97350000D03*
D19*
X150250000Y-98850000D03*
X150750000Y-98850000D03*
X151250000Y-98850000D03*
X151750000Y-98850000D03*
X152250000Y-98850000D03*
X152750000Y-98850000D03*
X153250000Y-98850000D03*
X153750000Y-98850000D03*
X154250000Y-98850000D03*
X154750000Y-98850000D03*
X155250000Y-98850000D03*
X155750000Y-98850000D03*
D20*
X157250000Y-97350000D03*
X157250000Y-96850000D03*
X157250000Y-96350000D03*
X157250000Y-95850000D03*
X157250000Y-95350000D03*
X157250000Y-94850000D03*
X157250000Y-94350000D03*
X157250000Y-93850000D03*
X157250000Y-93350000D03*
X157250000Y-92850000D03*
X157250000Y-92350000D03*
X157250000Y-91850000D03*
D21*
X162700000Y-89825000D03*
D22*
X162700000Y-90475000D03*
X162700000Y-91125000D03*
X162700000Y-91775000D03*
X166100000Y-91775000D03*
X166100000Y-91125000D03*
X166100000Y-90475000D03*
X166100000Y-89825000D03*
D23*
X164800000Y-89600000D03*
X164800000Y-90400000D03*
X164800000Y-91200000D03*
X164800000Y-92000000D03*
X164000000Y-89600000D03*
X164000000Y-90400000D03*
X164000000Y-91200000D03*
X164000000Y-92000000D03*
D24*
X164450240Y-115250040D03*
D25*
X163149760Y-115250040D03*
X163149760Y-117149960D03*
X164450240Y-117149960D03*
D26*
X132501140Y-106000760D03*
D27*
X132501140Y-105500380D03*
X132501140Y-105000000D03*
X132501140Y-104499620D03*
X132501140Y-103999240D03*
D28*
X131500380Y-103498860D03*
X131000000Y-103498860D03*
X130499620Y-103498860D03*
D27*
X129498860Y-103999240D03*
X129498860Y-104499620D03*
X129498860Y-105000000D03*
X129498860Y-105500380D03*
X129498860Y-106000760D03*
D28*
X130499620Y-106501140D03*
X131000000Y-106501140D03*
X131500380Y-106501140D03*
D29*
X134950000Y-93750000D03*
D30*
X135450000Y-93750000D03*
X135950000Y-93750000D03*
X136450000Y-93750000D03*
X136950000Y-93750000D03*
D31*
X137900000Y-92800000D03*
X137900000Y-92300000D03*
X137900000Y-91800000D03*
X137900000Y-91300000D03*
X137900000Y-90800000D03*
D30*
X136950000Y-89850000D03*
X136450000Y-89850000D03*
X135950000Y-89850000D03*
X135450000Y-89850000D03*
X134950000Y-89850000D03*
D31*
X134000000Y-90800000D03*
X134000000Y-91300000D03*
X134000000Y-91800000D03*
X134000000Y-92300000D03*
X134000000Y-92800000D03*
D32*
X135400000Y-92350000D03*
X135400000Y-91250000D03*
X136500000Y-92350000D03*
X136500000Y-91250000D03*
D33*
X150550000Y-113150000D03*
D20*
X150550000Y-112650000D03*
X150550000Y-112150000D03*
X150550000Y-111650000D03*
X150550000Y-111150000D03*
X150550000Y-110650000D03*
X150550000Y-110150000D03*
X150550000Y-109650000D03*
X150550000Y-109150000D03*
X150550000Y-108650000D03*
X150550000Y-108150000D03*
X150550000Y-107650000D03*
X150550000Y-107150000D03*
X150550000Y-106650000D03*
X150550000Y-106150000D03*
X150550000Y-105650000D03*
D19*
X148550000Y-103650000D03*
X148050000Y-103650000D03*
X147550000Y-103650000D03*
X147050000Y-103650000D03*
X146550000Y-103650000D03*
X146050000Y-103650000D03*
X145550000Y-103650000D03*
X145050000Y-103650000D03*
D20*
X139050000Y-105650000D03*
X139050000Y-106150000D03*
X139050000Y-106650000D03*
X139050000Y-107150000D03*
D19*
X144550000Y-103650000D03*
X144050000Y-103650000D03*
X143550000Y-103650000D03*
X143050000Y-103650000D03*
X142550000Y-103650000D03*
X142050000Y-103650000D03*
X141550000Y-103650000D03*
X141050000Y-103650000D03*
D20*
X139050000Y-107650000D03*
X139050000Y-108150000D03*
X139050000Y-108650000D03*
X139050000Y-109150000D03*
X139050000Y-109650000D03*
X139050000Y-110150000D03*
X139050000Y-110650000D03*
X139050000Y-111150000D03*
X139050000Y-111650000D03*
X139050000Y-112150000D03*
X139050000Y-112650000D03*
X139050000Y-113150000D03*
D19*
X141050000Y-115150000D03*
X141550000Y-115150000D03*
X142050000Y-115150000D03*
X142550000Y-115150000D03*
X143050000Y-115150000D03*
X143550000Y-115150000D03*
X144050000Y-115150000D03*
X144550000Y-115150000D03*
X145050000Y-115150000D03*
X145550000Y-115150000D03*
X146050000Y-115150000D03*
X146550000Y-115150000D03*
X147050000Y-115150000D03*
X147550000Y-115150000D03*
X148050000Y-115150000D03*
X148550000Y-115150000D03*
D34*
X130300000Y-85000000D03*
X168700000Y-85000000D03*
X130300000Y-128700000D03*
X168700000Y-128700000D03*
D16*
X131700000Y-95900000D03*
X131700000Y-96900000D03*
X136000000Y-83800000D03*
X136000000Y-84800000D03*
X158000000Y-101900000D03*
X158000000Y-100900000D03*
D35*
X152689000Y-124216000D03*
X150911000Y-124216000D03*
X151800000Y-122184000D03*
X163384000Y-111689000D03*
X163384000Y-109911000D03*
X165416000Y-110800000D03*
D36*
X132600000Y-99650000D03*
X132600000Y-101150000D03*
X131000000Y-101150000D03*
X131000000Y-99650000D03*
X160000000Y-82850000D03*
X160000000Y-84350000D03*
D37*
X167950000Y-106600000D03*
X166450000Y-106600000D03*
D36*
X160000000Y-87350000D03*
X160000000Y-85850000D03*
D37*
X139450000Y-97800000D03*
X140950000Y-97800000D03*
D36*
X163200000Y-87350000D03*
X163200000Y-85850000D03*
X163200000Y-82850000D03*
X163200000Y-84350000D03*
X161000000Y-102650000D03*
X161000000Y-104150000D03*
X153256900Y-110635200D03*
X153256900Y-109135200D03*
D37*
X146900000Y-83750000D03*
X148400000Y-83750000D03*
D36*
X166600000Y-112650000D03*
X166600000Y-114150000D03*
X166600000Y-115650000D03*
X166600000Y-117150000D03*
D37*
X163450000Y-108200000D03*
X164950000Y-108200000D03*
X131750000Y-91500000D03*
X130250000Y-91500000D03*
D38*
X170000000Y-109500000D03*
X170000000Y-112000000D03*
X170000000Y-114500000D03*
D39*
X138314000Y-96159500D03*
D15*
X142000000Y-101562000D03*
X142000000Y-100038000D03*
D12*
X136562000Y-112200000D03*
X135038000Y-112200000D03*
D40*
X150600000Y-130600000D03*
D41*
X153140000Y-130600000D03*
X155680000Y-130600000D03*
D42*
X170050000Y-104750000D03*
X170050000Y-94450000D03*
X165850000Y-104750000D03*
X165850000Y-94450000D03*
D43*
X163650000Y-101800000D03*
X163650000Y-97400000D03*
D44*
X165525000Y-100900000D03*
X165525000Y-100250000D03*
X165525000Y-99600000D03*
X165525000Y-98950000D03*
X165525000Y-98300000D03*
D40*
X159000000Y-130600000D03*
D41*
X161540000Y-130600000D03*
X164080000Y-130600000D03*
D40*
X170600000Y-92000000D03*
D41*
X170600000Y-89460000D03*
D45*
X137900540Y-122199700D03*
X139000360Y-122199700D03*
X140100180Y-122199700D03*
X141200000Y-122199700D03*
X142299820Y-122199700D03*
X143399640Y-122199700D03*
X144499460Y-122199700D03*
X145599280Y-122199700D03*
D46*
X134499480Y-128001060D03*
X134499480Y-119799400D03*
X147900520Y-128001060D03*
X147900520Y-119799400D03*
D40*
X159000000Y-127800000D03*
D41*
X161540000Y-127800000D03*
X164080000Y-127800000D03*
D47*
X144500000Y-93900000D03*
X144500000Y-91700000D03*
X142900000Y-91700000D03*
X142900000Y-93900000D03*
D48*
X158180820Y-111038320D03*
X158180820Y-107340080D03*
X155981180Y-107340080D03*
X155981180Y-111038320D03*
D49*
X170000000Y-119200000D03*
D50*
X170000000Y-123800000D03*
D12*
X130562000Y-108800000D03*
X129038000Y-108800000D03*
X159438000Y-98800000D03*
X160962000Y-98800000D03*
X151562000Y-87800000D03*
X150038000Y-87800000D03*
D15*
X146845400Y-100899600D03*
X146845400Y-99375600D03*
D40*
X128600000Y-123800000D03*
D41*
X128600000Y-121260000D03*
X128600000Y-118720000D03*
X128600000Y-116180000D03*
X128600000Y-113640000D03*
X128600000Y-111100000D03*
M02*
