M48
;DRILL file {KiCad 4.0.2-stable} date 18.04.2016 18:59:28
;FORMAT={-:-/ absolute / metric / decimal}
FMAT,2
METRIC,TZ
T1C0.300
T2C0.400
T3C0.600
T4C0.900
T5C1.500
T6C3.500
%
G90
G05
M71
T1
X128.395Y-104.249
X129.595Y-107.701
X131.341Y-111.494
X132.869Y-109.233
X133.177Y-94.204
X133.517Y-95.354
X133.628Y-104.676
X134.26Y-94.131
X135.8Y-111.244
X137.905Y-109.508
X137.913Y-112.016
X138.459Y-97.2
X138.472Y-99.809
X140.184Y-112.005
X140.197Y-110.089
X140.206Y-106.636
X140.651Y-105.853
X141.075Y-107.175
X141.186Y-114.007
X141.281Y-110.809
X141.635Y-107.982
X142.265Y-114.034
X142.399Y-119.331
X142.452Y-110.347
X142.604Y-118.439
X142.646Y-120.774
X142.905Y-116.284
X143.475Y-113.906
X143.89Y-105.463
X144.185Y-102.178
X144.623Y-112.933
X144.821Y-100.99
X145.037Y-101.888
X145.29Y-111.217
X145.297Y-114.045
X145.3Y-116.253
X145.318Y-107.615
X145.455Y-104.717
X145.606Y-112.061
X146.485Y-93.553
X147.7Y-97.731
X148.863Y-106.281
X149.231Y-114.592
X149.441Y-100.077
X149.447Y-108.9
X149.505Y-100.975
X149.641Y-105.128
X149.643Y-85.524
X149.666Y-115.841
X149.9Y-95.35
X149.953Y-124.9
X150.251Y-100.471
X150.272Y-94.351
X150.557Y-104.224
X151.599Y-103.543
X151.839Y-110.058
X152.Y-89.247
X154.236Y-93.662
X154.831Y-110.878
X155.455Y-94.4
X158.027Y-89.716
X158.126Y-99.292
X158.709Y-91.397
X158.855Y-100.285
X158.95Y-86.16
X159.95Y-102.403
X161.011Y-101.643
X161.602Y-90.822
X162.048Y-102.25
X162.35Y-101.229
X162.875Y-99.2
X162.916Y-92.51
X163.413Y-103.603
X164.25Y-85.802
X164.25Y-87.305
X165.351Y-116.406
X165.383Y-114.591
X165.587Y-103.445
X167.235Y-91.957
X167.312Y-89.703
T2
X127.899Y-96.334
X128.036Y-101.44
X128.828Y-94.969
X129.046Y-100.02
X129.128Y-97.972
X129.162Y-91.875
X130.002Y-96.334
X130.657Y-118.588
X130.718Y-104.718
X131.285Y-123.121
X131.832Y-120.855
X131.859Y-115.011
X131.968Y-117.168
X132.791Y-103.199
X132.951Y-125.742
X133.173Y-118.747
X133.224Y-123.312
X133.333Y-97.563
X133.485Y-107.609
X133.552Y-115.803
X133.956Y-113.417
X134.016Y-108.758
X134.316Y-82.709
X134.316Y-84.702
X134.516Y-104.152
X134.817Y-95.307
X135.4Y-91.25
X135.4Y-92.35
X135.572Y-118.261
X135.578Y-103.716
X135.736Y-108.649
X135.763Y-123.094
X135.818Y-125.606
X136.064Y-121.455
X136.146Y-99.556
X136.5Y-91.25
X136.5Y-92.35
X136.746Y-115.912
X136.938Y-128.992
X136.987Y-100.763
X137.183Y-83.692
X137.183Y-84.975
X137.293Y-103.597
X137.347Y-126.725
X137.402Y-119.68
X137.511Y-124.814
X138.084Y-82.527
X138.494Y-86.395
X138.535Y-83.95
X138.603Y-118.206
X139.095Y-104.144
X139.204Y-100.512
X139.559Y-129.074
X139.602Y-95.129
X139.688Y-82.545
X139.859Y-85.357
X140.265Y-83.842
X140.312Y-89.057
X140.542Y-124.677
X140.678Y-126.725
X140.777Y-89.943
X140.979Y-86.422
X141.358Y-91.433
X141.443Y-84.347
X141.443Y-94.45
X141.49Y-82.545
X141.661Y-93.303
X142.18Y-87.296
X142.262Y-85.658
X142.317Y-98.6
X142.999Y-129.128
X143.399Y-82.473
X143.436Y-97.672
X143.573Y-84.292
X143.586Y-111.015
X143.6Y-87.05
X143.627Y-126.698
X143.882Y-99.585
X144.119Y-125.442
X144.732Y-88.057
X145.047Y-85.466
X145.047Y-86.723
X145.049Y-123.528
X145.075Y-117.987
X145.129Y-82.509
X145.157Y-83.992
X145.687Y-99.28
X145.998Y-97.68
X146.058Y-119.599
X146.085Y-129.046
X146.354Y-89.318
X146.44Y-126.643
X146.495Y-87.678
X146.742Y-121.382
X146.85Y-85.767
X147.095Y-125.087
X147.48Y-93.963
X147.506Y-95.853
X147.543Y-82.473
X147.723Y-90.846
X148.042Y-123.878
X148.297Y-129.784
X148.324Y-87.733
X148.379Y-86.095
X148.379Y-89.098
X149.307Y-119.134
X149.458Y-98.52
X149.56Y-82.473
X149.575Y-102.675
X149.635Y-120.691
X149.717Y-126.316
X150.357Y-88.946
X150.454Y-128.2
X150.918Y-85.33
X151.136Y-125.578
X151.506Y-82.473
X151.54Y-115.606
X151.928Y-119.926
X151.974Y-94.939
X152.118Y-96.921
X152.263Y-93.245
X152.529Y-85.958
X152.762Y-103.384
X152.999Y-117.5
X153.199Y-82.509
X153.502Y-92.983
X153.539Y-84.757
X153.567Y-121.592
X153.858Y-100.714
X153.894Y-86.231
X154.058Y-126.643
X154.071Y-108.115
X154.522Y-83.692
X154.659Y-128.664
X154.717Y-111.872
X154.742Y-101.825
X155.044Y-105.955
X155.068Y-88.975
X155.096Y-85.658
X155.123Y-123.394
X155.469Y-82.545
X155.57Y-113.108
X155.763Y-103.577
X155.833Y-117.359
X155.888Y-100.894
X156.036Y-93.585
X156.119Y-109.306
X156.161Y-119.462
X156.168Y-115.834
X156.215Y-84.975
X156.358Y-114.345
X156.461Y-120.991
X156.598Y-127.736
X156.625Y-124.923
X157.088Y-108.723
X157.144Y-129.838
X157.694Y-84.978
X157.744Y-122.22
X158.072Y-115.803
X159.Y-118.616
X159.328Y-121.483
X159.442Y-88.953
X159.601Y-114.492
X159.71Y-123.612
X159.929Y-100.157
X160.17Y-129.353
X160.393Y-115.694
X160.448Y-118.588
X160.666Y-120.308
X161.185Y-111.953
X162.113Y-124.268
X162.223Y-94.914
X162.337Y-112.444
X162.386Y-121.947
X162.823Y-119.134
X162.959Y-93.812
X164.Y-89.6
X164.Y-90.4
X164.Y-91.2
X164.Y-92.
X164.189Y-125.851
X164.8Y-89.6
X164.8Y-90.4
X164.8Y-91.2
X164.8Y-92.
X164.981Y-83.774
X164.981Y-88.416
X165.019Y-109.56
X165.05Y-97.45
X165.226Y-86.45
X165.341Y-82.473
X166.018Y-108.567
X166.946Y-122.056
X167.028Y-124.377
X167.165Y-88.279
X167.219Y-110.478
X168.257Y-107.994
T3
X170.Y-109.5
X170.Y-112.
X170.Y-114.5
T4
X128.6Y-111.1
X128.6Y-113.64
X128.6Y-116.18
X128.6Y-118.72
X128.6Y-121.26
X128.6Y-123.8
X150.6Y-130.6
X153.14Y-130.6
X155.68Y-130.6
X159.Y-127.8
X159.Y-130.6
X161.54Y-127.8
X161.54Y-130.6
X164.08Y-127.8
X164.08Y-130.6
X164.4Y-120.45
X164.4Y-123.95
X170.6Y-89.46
X170.6Y-92.
T5
X170.Y-119.2
X170.Y-123.8
T6
X130.3Y-85.
X130.3Y-128.7
X168.7Y-85.
X168.7Y-128.7
T0
M30
